<svg xmlns="http://www.w3.org/2000/svg" width="36" height="36" viewBox="0 0 36 36">
  <g id="Button_-_Next" data-name="Button - Next" transform="translate(-314 -149)">
    <g id="BG" transform="translate(314 149)" fill="#fff">
      <path d="M 28 35.5 L 8 35.5 C 3.864490032196045 35.5 0.5 32.1355094909668 0.5 28 L 0.5 8 C 0.5 3.864490032196045 3.864490032196045 0.5 8 0.5 L 28 0.5 C 32.1355094909668 0.5 35.5 3.864490032196045 35.5 8 L 35.5 28 C 35.5 32.1355094909668 32.1355094909668 35.5 28 35.5 Z" stroke="none"/>
      <path d="M 8 1 C 4.140190124511719 1 1 4.140190124511719 1 8 L 1 28 C 1 31.85980987548828 4.140190124511719 35 8 35 L 28 35 C 31.85980987548828 35 35 31.85980987548828 35 28 L 35 8 C 35 4.140190124511719 31.85980987548828 1 28 1 L 8 1 M 8 0 L 28 0 C 32.41828155517578 0 36 3.581718444824219 36 8 L 36 28 C 36 32.41828155517578 32.41828155517578 36 28 36 L 8 36 C 3.581718444824219 36 0 32.41828155517578 0 28 L 0 8 C 0 3.581718444824219 3.581718444824219 0 8 0 Z" stroke="none" fill="#eee"/>
    </g>
    <path id="Chev_Icon" data-name="Chev Icon" d="M7.293,14.707a1,1,0,0,1,0-1.414L10.586,10,7.293,6.707A1,1,0,1,1,8.707,5.293l4,4a1,1,0,0,1,0,1.414l-4,4a1,1,0,0,1-1.414,0Z" transform="translate(322 157)" fill="#919191" fill-rule="evenodd"/>
  </g>
</svg>
