<svg xmlns="http://www.w3.org/2000/svg" width="21.5" height="21.5" viewBox="0 0 21.5 21.5">
  <g id="fav_outline" transform="translate(0.75 0.75)">
    <path id="favorites" d="M137.2,217.2a10,10,0,1,0,10,10A10,10,0,0,0,137.2,217.2Zm5.738,8.5-2.97,2.332,1.035,3.63a.44.44,0,0,1-.666.487l-3.138-2.108-3.132,2.1a.438.438,0,0,1-.666-.487l1.035-3.63-2.97-2.332a.439.439,0,0,1,.257-.783l3.775-.14,1.3-3.546a.439.439,0,0,1,.822,0l1.3,3.546,3.775.14A.442.442,0,0,1,142.938,225.7Z" transform="translate(-127.2 -217.2)" fill="none" stroke="#1478fb" stroke-miterlimit="10" stroke-width="1.5"/>
  </g>
</svg>
