<svg id="friends_filled" xmlns="http://www.w3.org/2000/svg" width="13.85" height="17.308" viewBox="0 0 13.85 17.308">
  <path id="Path_11" data-name="Path 11" d="M46.486,151.741c-3.019,1.322-9.079,1.676-13.365-.049a.7.7,0,0,1-.431-.608A14.2,14.2,0,0,1,32.9,147.1a4.615,4.615,0,0,1,3.79-3.536c1.633-.156,3.288-.113,4.929-.106a5.659,5.659,0,0,1,1.676.276,4.674,4.674,0,0,1,3.2,4.4c-.021,1.2-.007,2.411-.007,3.606" transform="translate(-32.644 -135.555)" fill="#1478fb"/>
  <path id="Path_12" data-name="Path 12" d="M82.4,31.8a3.646,3.646,0,0,1,3.705,3.663A3.691,3.691,0,0,1,82.394,39.2a3.749,3.749,0,0,1-3.755-3.9A3.68,3.68,0,0,1,82.4,31.8Z" transform="translate(-75.382 -31.79)" fill="#1478fb"/>
</svg>
