<svg xmlns="http://www.w3.org/2000/svg" width="14.349" height="17.808" viewBox="0 0 14.349 17.808">
  <g id="friends" transform="translate(-32.394 -31.54)">
    <path id="Path_11" data-name="Path 11" d="M39.918,153.112a19,19,0,0,1-6.889-1.189.945.945,0,0,1-.588-.827,14.591,14.591,0,0,1,.211-4.051,4.867,4.867,0,0,1,4.009-3.728c1.09-.1,2.162-.118,3.067-.118.381,0,.768,0,1.142.006l.745,0a5.917,5.917,0,0,1,1.75.287,4.963,4.963,0,0,1,2.427,1.767,4.789,4.789,0,0,1,.951,2.873c-.015.858-.012,1.732-.009,2.578q0,.514,0,1.026v.163l-.15.066A17.808,17.808,0,0,1,39.918,153.112Zm-.189-9.412c-.893,0-1.95.014-3.019.116a4.348,4.348,0,0,0-3.57,3.342,13.95,13.95,0,0,0-.2,3.912.449.449,0,0,0,.275.389,18.5,18.5,0,0,0,6.7,1.153,17.65,17.65,0,0,0,6.319-1.036q0-.429,0-.859c0-.848-.006-1.724.009-2.586a4.442,4.442,0,0,0-3.031-4.156,5.409,5.409,0,0,0-1.6-.263l-.747,0C40.494,143.7,40.108,143.7,39.728,143.7Z" transform="translate(0 -103.765)" fill="#1478fb"/>
    <path id="Path_12" data-name="Path 12" d="M82.174,31.54c.076,0,.153,0,.229.007a3.669,3.669,0,0,1,2.786,1.115,4,4,0,0,1-.006,5.653A4.047,4.047,0,0,1,82.4,39.451h-.064a3.9,3.9,0,0,1-2.842-1.239,3.975,3.975,0,0,1-1.1-2.92,4.1,4.1,0,0,1,1.137-2.582A3.653,3.653,0,0,1,82.174,31.54Zm.225.508h-.015c-.07,0-.14-.007-.21-.007a3.439,3.439,0,0,0-2.32,5.828,3.4,3.4,0,0,0,2.535,1.083,3.429,3.429,0,0,0,3.467-3.493,3.47,3.47,0,0,0-1.022-2.444,3.173,3.173,0,0,0-2.421-.967Z" transform="translate(-42.738 0)" fill="#1478fb"/>
  </g>
</svg>
