<?xml version="1.0" encoding="UTF-8"?><svg id="a" xmlns="http://www.w3.org/2000/svg" xmlns:xlink="http://www.w3.org/1999/xlink" viewBox="0 0 571.14 379.46"><defs><style>.d{fill:url(#c);}.e{opacity:.4;}.f{fill:url(#b);}</style><linearGradient id="b" x1="150.83" y1="189.73" x2="571.14" y2="189.73" gradientTransform="matrix(1, 0, 0, 1, 0, 0)" gradientUnits="userSpaceOnUse"><stop offset="0" stop-color="#77b2ff"/><stop offset=".46" stop-color="#1478fb"/><stop offset="1" stop-color="#1478fb"/></linearGradient><linearGradient id="c" x1="0" y1="189.73" x2="420.31" y2="189.73" gradientTransform="matrix(1, 0, 0, 1, 0, 0)" gradientUnits="userSpaceOnUse"><stop offset="0" stop-color="#77b2ff"/><stop offset=".46" stop-color="#1478fb"/><stop offset="1" stop-color="#1478fb"/></linearGradient></defs><path class="f" d="M540.24,288.65c19.58-28.83,30.9-62.7,30.9-98.92C571.14,85.11,476.86,0,360.98,0c-6.17,0-12.27,.29-18.33,.77-19.93,1.56-39.07,5.68-57.03,11.93,20.41,7.11,39.26,17,56.02,29.17,6.36-.64,12.81-1.01,19.34-1.01,12.31,0,24.3,1.19,35.87,3.39,76.17,14.51,133.42,74.2,133.42,145.47s-57.25,130.97-133.42,145.47c-11.57,2.21-23.56,3.39-35.87,3.39-6.54,0-12.99-.36-19.34-1-19.93-2-38.83-7.06-56.06-14.64-14.28-6.27-27.41-14.25-39.05-23.65-33.68-27.23-54.83-66.26-54.83-109.57s21.15-82.33,54.83-109.56c-11.57-2.76-23.76-4.27-36.35-4.27-6.13,0-12.15,.38-18.06,1.06-25.93,31.55-41.28,70.57-41.28,112.78s15.35,81.22,41.28,112.77c10.75,13.09,23.34,24.88,37.39,35.08,16.77,12.18,35.67,22.05,56.08,29.15,17.97,6.26,37.12,10.39,57.08,11.94,6.06,.48,12.16,.78,18.33,.78,48.85,0,93.82-15.16,129.54-40.5l68.08,18.24-18.36-68.55Z"/><path class="d" d="M341.63,41.87c-16.76-12.17-35.61-22.06-56.02-29.17C262.18,4.53,236.75,0,210.16,0,94.28,0,0,85.11,0,189.72c0,36.23,11.31,70.09,30.91,98.92l-18.37,68.55,68.08-18.24c35.72,25.33,80.7,40.5,129.54,40.5,6.18,0,12.3-.3,18.35-.78,19.95-1.56,39.09-5.68,57.06-11.94-20.41-7.1-39.3-16.97-56.08-29.15-6.34,.64-12.79,1-19.33,1-12.34,0-24.37-1.19-35.96-3.41-76.13-14.54-133.34-74.22-133.34-145.45,0-82.08,75.94-148.86,169.29-148.86,6.54,0,12.99,.36,19.34,1,19.93,2,38.83,7.06,56.07,14.64,55.59,24.43,93.88,74.95,93.88,133.22,0,43.29-21.13,82.3-54.78,109.52,11.71,2.81,23.9,4.31,36.31,4.31,6.03,0,12.07-.4,18.08-1.1,25.9-31.55,41.25-70.55,41.25-112.74,0-59.72-30.75-113.05-78.68-147.86Z"/><path class="e" d="M360.98,40.86c12.31,0,24.3,1.19,35.87,3.39-15.62-16.81-33.88-31.48-54.2-43.49-19.93,1.56-39.07,5.68-57.03,11.93,20.41,7.11,39.26,17,56.02,29.17,6.36-.64,12.81-1.01,19.34-1.01Z"/><path class="e" d="M210.16,338.58c-12.34,0-24.37-1.19-35.96-3.41,15.78,17.01,34.13,31.62,54.31,43.5,19.95-1.56,39.09-5.68,57.06-11.94-20.41-7.1-39.3-16.97-56.08-29.15-6.34,.64-12.79,1-19.33,1Z"/></svg>